<mxfile host="app.diagrams.net" modified="2021-03-08T15:19:09.251Z" agent="5.0 (Windows NT 10.0; Win64; x64) AppleWebKit/537.36 (KHTML, like Gecko) Chrome/88.0.4324.190 Safari/537.36" etag="ADiT66D84laT1mMBTSyK" version="14.4.4" type="github">
  <diagram id="Pj7e1iuOi9v6czoFpTaM" name="Page-1">
    <mxGraphModel dx="1550" dy="868" grid="1" gridSize="10" guides="1" tooltips="1" connect="1" arrows="1" fold="1" page="1" pageScale="1" pageWidth="827" pageHeight="1169" math="0" shadow="0">
      <root>
        <mxCell id="0" />
        <mxCell id="1" parent="0" />
        <mxCell id="QjxWRnedMtWpRL2zUmay-2" value="" style="rounded=1;whiteSpace=wrap;html=1;dashed=1;strokeColor=#3333FF;" vertex="1" parent="1">
          <mxGeometry x="200" y="470" width="400" height="210" as="geometry" />
        </mxCell>
        <mxCell id="QjxWRnedMtWpRL2zUmay-3" value="" style="group" vertex="1" connectable="0" parent="1">
          <mxGeometry x="80" y="470" width="120" height="22.090000000000032" as="geometry" />
        </mxCell>
        <mxCell id="QjxWRnedMtWpRL2zUmay-4" value="" style="aspect=fixed;html=1;points=[];align=center;image;fontSize=12;image=img/lib/azure2/networking/Virtual_Networks.svg;" vertex="1" parent="QjxWRnedMtWpRL2zUmay-3">
          <mxGeometry x="83" width="37" height="22.09" as="geometry" />
        </mxCell>
        <mxCell id="QjxWRnedMtWpRL2zUmay-5" value="Hub vNET&lt;br&gt;172.16.0.0/16" style="text;html=1;strokeColor=none;fillColor=none;align=center;verticalAlign=middle;whiteSpace=wrap;rounded=0;fontStyle=1;fontColor=#000099;" vertex="1" parent="QjxWRnedMtWpRL2zUmay-3">
          <mxGeometry y="2.090000000000032" width="70" height="20" as="geometry" />
        </mxCell>
        <mxCell id="QjxWRnedMtWpRL2zUmay-6" value="" style="rounded=1;whiteSpace=wrap;html=1;dashed=1;strokeColor=#3333FF;" vertex="1" parent="1">
          <mxGeometry x="269" y="530" width="120" height="90" as="geometry" />
        </mxCell>
        <mxCell id="QjxWRnedMtWpRL2zUmay-7" value="" style="aspect=fixed;html=1;points=[];align=center;image;fontSize=12;image=img/lib/azure2/networking/Application_Gateways.svg;" vertex="1" parent="1">
          <mxGeometry x="297" y="543" width="64" height="64" as="geometry" />
        </mxCell>
        <mxCell id="QjxWRnedMtWpRL2zUmay-8" value="" style="rounded=1;whiteSpace=wrap;html=1;dashed=1;strokeColor=#3333FF;" vertex="1" parent="1">
          <mxGeometry x="418" y="530" width="120" height="90" as="geometry" />
        </mxCell>
        <mxCell id="QjxWRnedMtWpRL2zUmay-9" value="" style="aspect=fixed;html=1;points=[];align=center;image;fontSize=12;image=img/lib/azure2/networking/Firewalls.svg;" vertex="1" parent="1">
          <mxGeometry x="446" y="543" width="71" height="60" as="geometry" />
        </mxCell>
        <mxCell id="QjxWRnedMtWpRL2zUmay-10" value="Subnet&lt;br&gt;172.16.2.0/24" style="text;html=1;strokeColor=none;fillColor=none;align=center;verticalAlign=middle;whiteSpace=wrap;rounded=0;fontStyle=1;fontColor=#000099;" vertex="1" parent="1">
          <mxGeometry x="210" y="630" width="70" height="20" as="geometry" />
        </mxCell>
        <mxCell id="QjxWRnedMtWpRL2zUmay-11" value="Subnet&lt;br&gt;172.16.1.0/24" style="text;html=1;strokeColor=none;fillColor=none;align=center;verticalAlign=middle;whiteSpace=wrap;rounded=0;fontStyle=1;fontColor=#000099;" vertex="1" parent="1">
          <mxGeometry x="510" y="630" width="70" height="20" as="geometry" />
        </mxCell>
        <mxCell id="QjxWRnedMtWpRL2zUmay-12" value="Firewall" style="text;html=1;strokeColor=none;fillColor=none;align=center;verticalAlign=middle;whiteSpace=wrap;rounded=0;fontStyle=1;fontColor=#000099;" vertex="1" parent="1">
          <mxGeometry x="447" y="600" width="70" height="20" as="geometry" />
        </mxCell>
        <mxCell id="QjxWRnedMtWpRL2zUmay-13" value="App Gateway" style="text;html=1;strokeColor=none;fillColor=none;align=center;verticalAlign=middle;whiteSpace=wrap;rounded=0;fontStyle=1;fontColor=#000099;" vertex="1" parent="1">
          <mxGeometry x="280" y="600" width="90" height="20" as="geometry" />
        </mxCell>
        <mxCell id="QjxWRnedMtWpRL2zUmay-14" value="" style="rounded=1;whiteSpace=wrap;html=1;dashed=1;strokeColor=#3333FF;" vertex="1" parent="1">
          <mxGeometry x="200" y="800" width="400" height="210" as="geometry" />
        </mxCell>
        <mxCell id="QjxWRnedMtWpRL2zUmay-15" value="" style="rounded=1;whiteSpace=wrap;html=1;dashed=1;strokeColor=#3333FF;" vertex="1" parent="1">
          <mxGeometry x="287" y="860" width="230" height="90" as="geometry" />
        </mxCell>
        <mxCell id="QjxWRnedMtWpRL2zUmay-16" value="" style="aspect=fixed;html=1;points=[];align=center;image;fontSize=12;image=img/lib/azure2/compute/Virtual_Machine.svg;" vertex="1" parent="1">
          <mxGeometry x="335" y="880" width="46" height="42.67" as="geometry" />
        </mxCell>
        <mxCell id="QjxWRnedMtWpRL2zUmay-17" value="" style="aspect=fixed;html=1;points=[];align=center;image;fontSize=12;image=img/lib/azure2/compute/Virtual_Machine.svg;" vertex="1" parent="1">
          <mxGeometry x="425" y="880" width="46" height="42.67" as="geometry" />
        </mxCell>
        <mxCell id="QjxWRnedMtWpRL2zUmay-18" value="" style="group" vertex="1" connectable="0" parent="1">
          <mxGeometry x="80" y="790" width="120" height="22.090000000000032" as="geometry" />
        </mxCell>
        <mxCell id="QjxWRnedMtWpRL2zUmay-19" value="" style="aspect=fixed;html=1;points=[];align=center;image;fontSize=12;image=img/lib/azure2/networking/Virtual_Networks.svg;" vertex="1" parent="QjxWRnedMtWpRL2zUmay-18">
          <mxGeometry x="83" width="37" height="22.09" as="geometry" />
        </mxCell>
        <mxCell id="QjxWRnedMtWpRL2zUmay-20" value="Hub vNET&lt;br&gt;172.17.0.0/16" style="text;html=1;strokeColor=none;fillColor=none;align=center;verticalAlign=middle;whiteSpace=wrap;rounded=0;fontStyle=1;fontColor=#000099;" vertex="1" parent="QjxWRnedMtWpRL2zUmay-18">
          <mxGeometry y="2.090000000000032" width="70" height="20" as="geometry" />
        </mxCell>
        <mxCell id="QjxWRnedMtWpRL2zUmay-21" value="" style="aspect=fixed;html=1;points=[];align=center;image;fontSize=12;image=img/lib/azure2/networking/Network_Security_Groups.svg;" vertex="1" parent="1">
          <mxGeometry x="484" y="938.43" width="26" height="31.57" as="geometry" />
        </mxCell>
        <mxCell id="QjxWRnedMtWpRL2zUmay-22" value="Subnet&lt;br&gt;172.17.1.0/24" style="text;html=1;strokeColor=none;fillColor=none;align=center;verticalAlign=middle;whiteSpace=wrap;rounded=0;fontStyle=1;fontColor=#000099;" vertex="1" parent="1">
          <mxGeometry x="217" y="950" width="70" height="20" as="geometry" />
        </mxCell>
        <mxCell id="QjxWRnedMtWpRL2zUmay-23" value="Public IP" style="text;html=1;strokeColor=none;fillColor=none;align=center;verticalAlign=middle;whiteSpace=wrap;rounded=0;fontStyle=1;fontColor=#000099;" vertex="1" parent="1">
          <mxGeometry x="240" y="540" width="70" height="20" as="geometry" />
        </mxCell>
        <mxCell id="QjxWRnedMtWpRL2zUmay-24" value="Public IP" style="text;html=1;strokeColor=none;fillColor=none;align=center;verticalAlign=middle;whiteSpace=wrap;rounded=0;fontStyle=1;fontColor=#000099;" vertex="1" parent="1">
          <mxGeometry x="500" y="540" width="70" height="20" as="geometry" />
        </mxCell>
        <mxCell id="QjxWRnedMtWpRL2zUmay-25" value="Private&lt;br&gt;&amp;nbsp;IP" style="text;html=1;strokeColor=none;fillColor=none;align=center;verticalAlign=middle;whiteSpace=wrap;rounded=0;fontStyle=1;fontColor=#000099;" vertex="1" parent="1">
          <mxGeometry x="465" y="880" width="60" height="20" as="geometry" />
        </mxCell>
        <mxCell id="QjxWRnedMtWpRL2zUmay-26" value="Private&lt;br&gt;&amp;nbsp;IP" style="text;html=1;strokeColor=none;fillColor=none;align=center;verticalAlign=middle;whiteSpace=wrap;rounded=0;fontStyle=1;fontColor=#000099;" vertex="1" parent="1">
          <mxGeometry x="280" y="881" width="60" height="20" as="geometry" />
        </mxCell>
        <mxCell id="QjxWRnedMtWpRL2zUmay-27" value="172.16.1.4" style="text;html=1;strokeColor=none;fillColor=none;align=center;verticalAlign=middle;whiteSpace=wrap;rounded=0;fontStyle=1;fontColor=#000099;" vertex="1" parent="1">
          <mxGeometry x="411" y="624" width="60" height="20" as="geometry" />
        </mxCell>
        <mxCell id="QjxWRnedMtWpRL2zUmay-28" value="" style="endArrow=classic;startArrow=classic;html=1;fontSize=12;fontColor=#000099;strokeWidth=1;strokeColor=#000099;entryX=0.5;entryY=1;entryDx=0;entryDy=0;exitX=0.705;exitY=0.286;exitDx=0;exitDy=0;exitPerimeter=0;" edge="1" parent="1" source="QjxWRnedMtWpRL2zUmay-14" target="QjxWRnedMtWpRL2zUmay-12">
          <mxGeometry width="50" height="50" relative="1" as="geometry">
            <mxPoint x="482" y="800" as="sourcePoint" />
            <mxPoint x="534" y="750" as="targetPoint" />
          </mxGeometry>
        </mxCell>
        <mxCell id="QjxWRnedMtWpRL2zUmay-29" value="" style="endArrow=classic;startArrow=classic;html=1;fontSize=12;fontColor=#000099;strokeWidth=1;strokeColor=#000099;entryX=0.5;entryY=1;entryDx=0;entryDy=0;exitX=0.705;exitY=0.286;exitDx=0;exitDy=0;exitPerimeter=0;" edge="1" parent="1">
          <mxGeometry width="50" height="50" relative="1" as="geometry">
            <mxPoint x="328.5799999999999" y="860.06" as="sourcePoint" />
            <mxPoint x="328.5799999999999" y="620" as="targetPoint" />
          </mxGeometry>
        </mxCell>
        <mxCell id="QjxWRnedMtWpRL2zUmay-30" value="UDR: 0.0.0.0/0 172.16.1.4&amp;nbsp;" style="text;html=1;strokeColor=none;fillColor=none;align=center;verticalAlign=middle;whiteSpace=wrap;rounded=0;fontStyle=1;fontColor=#000099;" vertex="1" parent="1">
          <mxGeometry x="489" y="780" width="150" height="20" as="geometry" />
        </mxCell>
        <mxCell id="QjxWRnedMtWpRL2zUmay-31" value="" style="endArrow=classic;html=1;strokeColor=#000099;strokeWidth=1;fontSize=29;fontColor=#000099;" edge="1" parent="1">
          <mxGeometry width="50" height="50" relative="1" as="geometry">
            <mxPoint x="481.5" y="410" as="sourcePoint" />
            <mxPoint x="481.0799999999999" y="530" as="targetPoint" />
          </mxGeometry>
        </mxCell>
        <mxCell id="QjxWRnedMtWpRL2zUmay-32" value="" style="endArrow=classic;html=1;strokeColor=#000099;strokeWidth=1;fontSize=29;fontColor=#000099;" edge="1" parent="1">
          <mxGeometry width="50" height="50" relative="1" as="geometry">
            <mxPoint x="329" y="410" as="sourcePoint" />
            <mxPoint x="328.5799999999999" y="530" as="targetPoint" />
          </mxGeometry>
        </mxCell>
        <mxCell id="QjxWRnedMtWpRL2zUmay-33" value="NON HTTP[S]" style="text;html=1;strokeColor=none;fillColor=none;align=center;verticalAlign=middle;whiteSpace=wrap;rounded=0;fontStyle=1;fontColor=#000099;" vertex="1" parent="1">
          <mxGeometry x="478" y="406" width="94" height="20" as="geometry" />
        </mxCell>
        <mxCell id="QjxWRnedMtWpRL2zUmay-34" value="HTTP[S]" style="text;html=1;strokeColor=none;fillColor=none;align=center;verticalAlign=middle;whiteSpace=wrap;rounded=0;fontStyle=1;fontColor=#000099;" vertex="1" parent="1">
          <mxGeometry x="277" y="406" width="44" height="20" as="geometry" />
        </mxCell>
        <mxCell id="QjxWRnedMtWpRL2zUmay-35" value="" style="aspect=fixed;html=1;points=[];align=center;image;fontSize=12;image=img/lib/azure2/identity/Users.svg;strokeColor=#3333FF;" vertex="1" parent="1">
          <mxGeometry x="314" y="360" width="30" height="32.81" as="geometry" />
        </mxCell>
        <mxCell id="QjxWRnedMtWpRL2zUmay-36" value="" style="aspect=fixed;html=1;points=[];align=center;image;fontSize=12;image=img/lib/azure2/identity/Users.svg;strokeColor=#3333FF;" vertex="1" parent="1">
          <mxGeometry x="466.5" y="360" width="30" height="32.81" as="geometry" />
        </mxCell>
        <mxCell id="QjxWRnedMtWpRL2zUmay-37" value="172.17.1.4" style="text;html=1;strokeColor=none;fillColor=none;align=center;verticalAlign=middle;whiteSpace=wrap;rounded=0;fontStyle=1;fontColor=#000099;" vertex="1" parent="1">
          <mxGeometry x="328" y="922.67" width="60" height="20" as="geometry" />
        </mxCell>
        <mxCell id="QjxWRnedMtWpRL2zUmay-38" value="172.17.1.5" style="text;html=1;strokeColor=none;fillColor=none;align=center;verticalAlign=middle;whiteSpace=wrap;rounded=0;fontStyle=1;fontColor=#000099;" vertex="1" parent="1">
          <mxGeometry x="414" y="922.67" width="60" height="20" as="geometry" />
        </mxCell>
        <mxCell id="QjxWRnedMtWpRL2zUmay-39" value="" style="group" vertex="1" connectable="0" parent="1">
          <mxGeometry x="474" y="690" width="180" height="35" as="geometry" />
        </mxCell>
        <mxCell id="QjxWRnedMtWpRL2zUmay-40" value="DNAT: PIP:8081 172.17.1.4" style="text;html=1;strokeColor=none;fillColor=none;align=center;verticalAlign=middle;whiteSpace=wrap;rounded=0;fontStyle=1;fontColor=#000099;" vertex="1" parent="QjxWRnedMtWpRL2zUmay-39">
          <mxGeometry width="180" height="20" as="geometry" />
        </mxCell>
        <mxCell id="QjxWRnedMtWpRL2zUmay-41" value="DNAT: PIP:8082 172.17.1.5" style="text;html=1;strokeColor=none;fillColor=none;align=center;verticalAlign=middle;whiteSpace=wrap;rounded=0;fontStyle=1;fontColor=#000099;" vertex="1" parent="QjxWRnedMtWpRL2zUmay-39">
          <mxGeometry y="15" width="180" height="20" as="geometry" />
        </mxCell>
      </root>
    </mxGraphModel>
  </diagram>
</mxfile>
